<?xml version="1.0" standalone="no"?><!DOCTYPE svg PUBLIC "-//W3C//DTD SVG 1.1//EN" "http://www.w3.org/Graphics/SVG/1.1/DTD/svg11.dtd"><svg xmlns:xlink="http://www.w3.org/1999/xlink" xmlns="http://www.w3.org/2000/svg" version="1.1" width="200" height="200" viewBox="0 0 200 200"><defs><style type="text/css"><![CDATA[
@font-face {
  font-family: "ifont";
  src: url("//at.alicdn.com/t/font_1442373896_4754455.eot?#iefix") format("embedded-opentype"), url("//at.alicdn.com/t/font_1442373896_4754455.woff") format("woff"), url("//at.alicdn.com/t/font_1442373896_4754455.ttf") format("truetype"), url("//at.alicdn.com/t/font_1442373896_4754455.svg#ifont") format("svg");
}

]]></style></defs><g class="transform-group"><g transform="scale(0.1953125, 0.1953125)"><path d="M253.53946 572.686151l-21.38096 21.927405 114.375957 77.959559 63.706951 102.895485 21.468964-21.850657-15.183817-110.343107 120.112612-113.596198 87.877443 245.719354 45.567825-46.414099-47.418986-273.839809 97.487312-97.331769c43.228547-44.096311 47.180556-78.964446 27.876907-98.486058-19.072381-19.456121-52.218292-14.341636-95.614661 29.592992l-96.869235 96.943936-276.055267-53.627385-45.542242 46.413076L481.694787 470.478328 369.325533 595.458807 253.53946 572.686151zM512 955.10284c244.718561 0 443.10284-198.384279 443.10284-443.10284S756.718561 68.89716 512 68.89716 68.89716 267.280416 68.89716 512 267.280416 955.10284 512 955.10284zM512 100.038414c227.519854 0 411.961586 184.441733 411.961586 411.961586S739.519854 923.961586 512 923.961586 100.038414 739.519854 100.038414 512 284.479123 100.038414 512 100.038414z" fill="#000000"></path></g></g></svg>