<?xml version="1.0" standalone="no"?><!DOCTYPE svg PUBLIC "-//W3C//DTD SVG 1.1//EN" "http://www.w3.org/Graphics/SVG/1.1/DTD/svg11.dtd"><svg xmlns:xlink="http://www.w3.org/1999/xlink" xmlns="http://www.w3.org/2000/svg" version="1.1" width="200" height="200" viewBox="0 0 200 200"><defs><style type="text/css"><![CDATA[
@font-face {
  font-family: "ifont";
  src: url("//at.alicdn.com/t/font_1442373896_4754455.eot?#iefix") format("embedded-opentype"), url("//at.alicdn.com/t/font_1442373896_4754455.woff") format("woff"), url("//at.alicdn.com/t/font_1442373896_4754455.ttf") format("truetype"), url("//at.alicdn.com/t/font_1442373896_4754455.svg#ifont") format("svg");
}

]]></style></defs><g class="transform-group"><g transform="scale(0.1953125, 0.1953125)"><path d="M536.29275 648.783293c0 4.048199 1.531952 8.097422 4.551852 11.20418 3.020924 3.086291 7.003795 4.63967 10.965175 4.63967l96.101599 0c3.961381 0 7.945275-1.554402 10.965175-4.63967 3.0199-3.106758 4.551852-7.15598 4.551852-11.20418L663.428404 440.720583l0-78.130452c0-4.070712-1.531952-8.118911-4.551852-11.205203s-7.003795-4.63967-10.965175-4.63967l-96.101599 0c-3.982871 0-7.944252 1.554402-10.965175 4.63967-3.0199 3.086291-4.551852 7.157004-4.551852 11.205203L536.29275 648.783293 536.29275 648.783293zM351.443331 360.620267c0-4.114714 1.531952-8.228405 4.617347-11.358699 3.063904-3.12927 7.091803-4.705162 11.096164-4.705162l97.480049 0c4.005385 0 8.032259 1.575892 11.096164 4.705162 3.086418 3.151783 4.61837 7.243985 4.61837 11.358699l0 290.131867c0 4.114714-1.531952 8.206916-4.61837 11.336186-3.063904 3.15076-7.090779 4.705162-11.096164 4.705162l-97.480049 0c-4.005385 0-8.032259-1.554402-11.096164-4.705162-3.085395-3.130294-4.617347-7.243985-4.617347-11.336186L351.443331 360.620267 351.443331 360.620267zM511.999488 63.792908c-247.553029 0-448.22648 200.686718-448.22648 448.208115 0 247.542886 200.673451 448.208115 448.22648 448.208115 247.531538 0 448.22648-200.666252 448.22648-448.208115C960.225968 264.479627 759.531027 63.792908 511.999488 63.792908zM511.999488 857.698416c-190.934247 0-345.690067-154.771993-345.690067-345.675904 0-190.926424 154.756844-345.675904 345.690067-345.675904 190.912757 0 345.691091 154.750503 345.691091 345.675904C857.690579 702.926424 702.912245 857.698416 511.999488 857.698416z" fill="#a9b7b7"></path></g></g></svg>